<?xml version="1.0" encoding="UTF-8" standalone="no"?>
<svg
   width="40"
   height="40"
   viewBox="0 0 40 40"
   fill="none"
   version="1.1"
   id="svg5"
   xmlns="http://www.w3.org/2000/svg"
   xmlns:svg="http://www.w3.org/2000/svg">
  <g
     clip-path="url(#clip0_710_6219)"
     id="g4"
     transform="matrix(2.0408163,0,0,2,-20.408163,-20)"
     style="fill:#dddde3;fill-opacity:1">
    <path
       id="path4"
       style="fill:#000000;fill-opacity:1;stroke-width:0.85"
       d="m 19.97,14.880705 c 1.247885,0 2.368355,0.428826 3.249294,1.27109 l 2.437971,-2.437969 C 24.185235,12.342265 22.26109,11.5 19.97,11.5 c -3.322735,0 -6.197265,1.904765 -7.59594,4.682735 L 15.213825,18.385 C 15.882265,16.37594 17.75609,14.880705 19.97,14.880705 Z M 15.213825,21.615 c -0.169999,-0.51 -0.26656,-1.054765 -0.26656,-1.615 0,-0.560235 0.09656,-1.105 0.26656,-1.615 V 16.182735 H 12.37406 C 11.79844,17.330235 11.47,18.62844 11.47,20 c 0,1.37156 0.32844,2.669765 0.90406,3.817265 z M 19.97,28.5 c 2.295,0 4.21906,-0.761175 5.625385,-2.059295 l -2.74703,-2.132735 c -0.76109,0.51 -1.734765,0.811325 -2.878355,0.811325 -2.21391,0 -4.087735,-1.495235 -4.756175,-3.504295 H 12.37406 v 2.202265 C 13.772735,26.595235 16.647265,28.5 19.97,28.5 Z m 8.16,-8.306795 c 0,-0.602735 -0.05406,-1.182265 -0.15453,-1.738675 H 19.97 v 3.28797 h 4.57453 c -0.19703,1.0625 -0.795855,1.962734 -1.69609,2.56547 v 2.132735 h 2.74703 C 27.202735,24.96094 28.13,22.781795 28.13,20.193205 Z" />
  </g>
  <defs
     id="defs5">
    <clipPath
       id="clip0_710_6219">
      <rect
         width="20"
         height="20"
         fill="#ffffff"
         transform="translate(10,10)"
         id="rect5"
         x="0"
         y="0" />
    </clipPath>
  </defs>
</svg>
