<?xml version="1.0" encoding="UTF-8" standalone="no"?>
<!-- Created with Inkscape (http://www.inkscape.org/) -->

<svg
   version="1.1"
   id="svg1"
   width="1250"
   height="1250"
   viewBox="0 0 1250.0001 1249.9999"
   xmlns="http://www.w3.org/2000/svg"
   xmlns:svg="http://www.w3.org/2000/svg">
  <defs
     id="defs1" />
  <circle
     style="fill:#ffffff;fill-rule:evenodd"
     id="path2"
     cx="625"
     cy="625"
     r="625" />
  <path
     style="fill:#fdbe58;fill-opacity:1;fill-rule:evenodd"
     d="m 525.89764,244.65225 -0.78737,-141.94724 0.40216,-0.40216 0.40217,-0.40216 47.85306,133.83583 47.85306,133.83584 -0.5873,0.5873 -0.58731,0.5873 -14.18895,1.00607 -14.18895,1.00606 -11.24842,1.64447 -11.24842,1.64446 -9.6,2.17538 -9.6,2.17539 -10.82583,3.10035 -10.82584,3.10035 h -1.01736 -1.01735 z"
     id="path51" />
  <path
     style="fill:#fdbe58;fill-opacity:1;fill-rule:evenodd"
     d="m 720.5047,386.39132 -2.66667,-1.02616 -13.08185,-3.60383 -13.08184,-3.60384 -16.25149,-2.72154 -16.25148,-2.72155 -14.75852,-0.97153 -14.75851,-0.97153 -0.40206,-0.40206 -0.40206,-0.40205 48.13883,-134.61674 48.13883,-134.61673 0.22466,0.26618 0.22465,0.26619 -0.88357,142.79177 -0.88356,142.79178 -0.31935,0.28391 -0.31935,0.2839 z"
     id="path50" />
  <path
     style="fill:#fdbe58;fill-opacity:1;fill-rule:evenodd"
     d="m 807.43802,433.42623 -5.33333,-4.26216 -13.33333,-8.94894 -13.33333,-8.94894 -13.33334,-6.87639 -13.33333,-6.87638 -8.8,-3.53346 -8.8,-3.53346 v -0.68988 -0.68987 l 89.67939,-108.16698 89.67938,-108.16697 1.5643,-1.6 1.5642,-1.6 -1.5217,4.26667 -1.5218,4.26666 -45.89607,123.73335 -45.89608,123.73334 -2.30245,6.13334 -2.30245,6.13333 -0.72336,-0.0555 -0.72336,-0.0555 z"
     id="path49" />
  <path
     style="fill:#fdbe58;fill-opacity:1;fill-rule:evenodd"
     d="m 433.76413,432.19949 -2.09387,-5.6 -47.13407,-127.82649 -47.13407,-127.82649 0.3513,-0.30961 0.3513,-0.30961 90.66666,109.32636 90.66666,109.32637 0.27419,0.69897 0.2742,0.69898 -8.16919,3.03796 -8.16919,3.03797 -14.21463,7.24422 -14.21463,7.24422 -10.95704,7.17333 -10.95704,7.17333 -8.09438,6.25524 -8.09438,6.25525 h -0.62898 -0.62898 z"
     id="path48" />
  <path
     style="fill:#fdbe58;fill-opacity:1;fill-rule:evenodd"
     d="m 872.86963,504.10567 -8.16838,-12.43951 -7.23188,-9.06667 -7.23188,-9.06666 -15.32546,-15.35428 -15.32546,-15.35427 0.85906,-0.75165 0.85906,-0.75166 121.93324,-71.20525 121.93327,-71.20526 0.3229,0.37784 0.3229,0.37785 -91.32287,107.42529 -91.32278,107.42529 -1.06667,1.01422 -1.06666,1.01422 z"
     id="path47" />
  <path
     style="fill:#fdbe58;fill-opacity:1;fill-rule:evenodd"
     d="m 275.87024,407.80909 -92.10115,-108.82952 0.36782,-0.267 0.36782,-0.267 123.23814,71.84646 123.23814,71.84647 -15.61669,15.69716 -15.61668,15.69717 -8.60795,10.8875 -8.60794,10.88751 -7.06348,10.7125 -7.06348,10.71249 -0.2167,-0.0471 -0.2167,-0.0471 z"
     id="path46" />
  <path
     style="fill:#fdbe58;fill-opacity:1;fill-rule:evenodd"
     d="m 207.25165,542.01559 -123.386404,-70.59882 0.2307,-0.23069 0.23069,-0.23069 140.133454,25.55535 140.13345,25.55535 0.4364,0.43639 0.43639,0.43639 -4.27335,7.83032 -4.27335,7.83031 -4.43723,10.13333 -4.43724,10.13334 -4.75123,13.86666 -4.75123,13.86667 -2.50316,10.13334 -2.50316,10.13333 -0.66948,2.93333 -0.66948,2.93334 -0.77968,-0.0592 -0.77967,-0.0592 z"
     id="path45" />
  <path
     style="fill:#fdbe58;fill-opacity:1;fill-rule:evenodd"
     d="m 917.39503,611.48083 -0.5244,-2.48133 -2.8383,-11.73333 -2.8383,-11.73334 -4.77171,-13.86666 -4.7717,-13.86667 -8.39752,-17.38297 -8.39751,-17.38298 1.29121,-0.42188 1.29122,-0.42188 138.50918,-25.19706 138.5092,-25.19705 0.3925,0.39246 0.3924,0.39246 -120.235,68.68712 -120.23497,68.68711 -3.4259,2.00366 -3.4259,2.00367 z"
     id="path44" />
  <path
     style="fill:#0366a5;fill-opacity:1;fill-rule:evenodd"
     d="m 368.16846,627.8195 -1.93625,-0.7634 2.11419,-1.91332 2.11419,-1.91331 2.04312,1.09345 2.04314,1.09345 1.37621,1.65823 1.37622,1.65824 -3.59729,-0.075 -3.59726,-0.075 z"
     id="path43" />
  <path
     style="fill:#0366a5;fill-opacity:1;fill-rule:evenodd"
     d="m 427.89303,647.79536 -0.63236,-2.41818 1.15263,-1.38884 1.15263,-1.38883 h 1.46939 1.4694 l -0.007,0.8 -0.007,0.8 -1.98263,3.00701 -1.98263,3.00702 z"
     id="path42" />
  <path
     style="fill:#0366a5;fill-opacity:1;fill-rule:evenodd"
     d="m 480.16818,678.17408 -0.6921,-0.6921 -2.93871,-0.1079 -2.93869,-0.10791 -0.35852,-1.86666 -0.35853,-1.86667 h 1.58933 1.58932 l 0.41171,1.23514 0.41171,1.23513 2.82047,-0.70789 2.82047,-0.70789 1.82861,-3.09559 1.82861,-3.0956 1.96143,1.22493 1.96143,1.22494 v 2.90589 2.90588 l -2.06321,1.1042 -2.06321,1.10419 h -2.55901 -2.55901 z"
     id="path41" />
  <path
     style="fill:#fdbe58;fill-opacity:1;fill-rule:evenodd"
     d="m 919.32393,713.26618 0.5888,-2.93334 1.18691,-11.2 1.1869,-11.2 -0.033,-20.8 -0.033,-20.8 -1.1323,-10.13334 -1.1322,-10.13333 -0.61031,-2.93333 -0.6103,-2.93334 0.8848,-0.0326 0.8847,-0.0326 139.19997,23.67229 139.2,23.6723 0.7707,0.65098 0.7707,0.65098 -139.4374,23.75077 -139.43726,23.75077 -1.4181,-0.0415 -1.4181,-0.0415 z"
     id="path40" />
  <path
     style="fill:#fdbe58;fill-opacity:1;fill-rule:evenodd"
     d="m 189.02921,692.89266 -139.475494,-24.15982 1.87552,-0.77254 1.87552,-0.77253 100.799984,-17.15338 100.79999,-17.15337 28.26667,-4.784 28.26666,-4.784 8.3845,-1.55676 8.38449,-1.55676 h 1.56692 1.56692 l -0.59863,2.93334 -0.59864,2.93333 -1.15511,11.73334 -1.15511,11.73333 0.0209,19.73333 0.0209,19.73334 1.1111,10.13333 1.11109,10.13334 0.63079,4 0.63079,4 -1.4271,-0.10686 -1.42709,-0.10685 z"
     id="path39" />
  <path
     style="fill:#0366a5;fill-opacity:1;fill-rule:evenodd"
     d="m 595.72867,785.57764 -1.11775,-2.08855 2.07677,-1.11145 2.07677,-1.11146 h 1.59824 1.59825 l 0.71936,2.26651 0.71936,2.2665 -1.44748,0.91716 -1.44748,0.91717 -1.82913,0.0163 -1.82914,0.0163 z"
     id="path38" />
  <path
     style="fill:#0366a5;fill-opacity:1;fill-rule:evenodd"
     d="m 602.81582,934.15508 -0.71112,-0.71111 v -0.88889 -0.88889 l 4,0.007 4,0.007 -3.05526,1.59343 -3.05526,1.59342 h -0.23363 -0.23362 z"
     id="path37" />
  <path
     style="fill:#0366a5;fill-opacity:1;fill-rule:evenodd"
     d="m 604.23004,968.98458 -1.14973,-2.14828 0.70691,-3.76812 0.7069,-3.76812 0.53547,0.53546 0.53547,0.53547 0.13649,5.38172 0.13649,5.38172 -0.22914,-7.8e-4 -0.22914,-7.9e-4 z"
     id="path36" />
  <path
     style="fill:#0366a5;fill-opacity:1;fill-rule:evenodd"
     d="m 595.70866,1048.4704 -2.50126,-2.6625 0.63905,-0.639 0.63904,-0.639 3.26404,0.7169 3.26404,0.7169 0.61358,0.9928 0.61357,0.9927 -1.59182,1.5918 -1.59181,1.5919 h -0.42359 -0.42359 z"
     id="path35" />
  <path
     style="fill:#0366a5;fill-opacity:1;fill-rule:evenodd"
     d="m 631.56946,472.14044 -1.71619,-1.71619 -1.16417,1.16418 -1.16417,1.16417 2.48433,1.7401 2.48434,1.7401 0.39603,-1.18808 0.39602,-1.18808 z"
     id="path34" />
  <path
     style="fill:#0366a5;fill-opacity:1;fill-rule:evenodd"
     d="m 648.71605,489.36669 0.67774,-1.76615 -2.42938,-1.96719 -2.42938,-1.96719 h -1.44835 -1.44836 l 0.61053,1.59101 0.61053,1.59101 -1.81833,0.69775 -1.81832,0.69776 -0.82568,-1.33598 -0.82568,-1.33598 -0.77348,1.25152 -0.77348,1.25151 0.37348,0.26603 0.37348,0.26603 4.26666,1.12821 4.26667,1.12821 1.36681,0.13479 1.36681,0.1348 z"
     id="path33" />
  <path
     style="fill:#0366a5;fill-opacity:1;fill-rule:evenodd"
     d="m 590.37137,521.60546 v -1.52736 l -3.05373,-2.17446 -3.05374,-2.17445 -0.69453,0.69453 -0.69453,0.69453 2.88116,3.00729 2.88117,3.00729 h 0.8671 0.86711 z"
     id="path32" />
  <path
     style="fill:#0366a5;fill-opacity:1;fill-rule:evenodd"
     d="m 622.37137,557.3995 v -0.93333 l -0.66667,-3.33334 -0.66666,-3.33333 h -1.40372 -1.40371 l -0.67532,1.09269 -0.67533,1.09269 0.69713,3.17398 0.69712,3.17397 h 2.04858 2.04858 z"
     id="path31" />
  <path
     style="fill:#0366a5;fill-opacity:1;fill-rule:evenodd"
     d="m 611.93752,595.3995 -1.09507,-1.33333 -0.36887,-2.66667 -0.36888,-2.66667 -2.22667,-0.31814 -2.22667,-0.31814 -1.25315,1.50995 -1.25315,1.50995 1.61316,1.3388 1.61315,1.3388 v 1.46939 1.4694 h 3.33061 3.33061 z"
     id="path30" />
  <path
     style="fill:#0366a5;fill-opacity:1;fill-rule:evenodd"
     d="m 613.26875,609.57256 1.89469,-2.0936 -0.62923,-1.63973 -0.62922,-1.63973 h -0.97574 -0.97573 l -0.53673,1.86667 -0.53672,1.86667 -0.76847,1.86666 -0.76847,1.86667 h 1.01547 1.01546 z"
     id="path29" />
  <path
     style="fill:#0366a5;fill-opacity:1;fill-rule:evenodd"
     d="m 589.30471,612.31362 v -2.55254 l -1.6,-0.61398 -1.6,-0.61398 v 2.7576 2.7576 l -2.13334,-0.55788 -2.13333,-0.55788 v 0.9668 0.96681 h 3.73333 3.73334 z"
     id="path28" />
  <path
     style="fill:#0366a5;fill-opacity:1;fill-rule:evenodd"
     d="m 759.01291,613.96839 0.69639,-3.40495 -0.85884,-0.53079 -0.85884,-0.53079 -0.69477,2.41549 -0.69476,2.41549 -0.56062,1.99286 -0.56065,1.99287 1.41786,-0.47262 1.41785,-0.47261 z"
     id="path27" />
  <path
     style="fill:#0366a5;fill-opacity:1;fill-rule:evenodd"
     d="m 682.81737,624.91679 0.64572,-1.68271 -1.63623,-1.63623 -1.63622,-1.63623 -0.71182,2.24273 -0.71181,2.24273 0.66513,1.07621 0.66513,1.07621 h 1.03719 1.03719 z"
     id="path26" />
  <path
     style="fill:#0366a5;fill-opacity:1;fill-rule:evenodd"
     d="m 633.03804,632.9995 v -1.06666 h -0.85248 -0.85248 l 0.33129,-4 0.33129,-4 -1.78281,3.4184 -1.78281,3.4184 1.36794,1.64827 1.36794,1.64826 h 0.93606 0.93606 z"
     id="path25" />
  <path
     style="fill:#0366a5;fill-opacity:1;fill-rule:evenodd"
     d="m 704.29137,637.05284 1.28,-1.28 v -0.85334 -0.85333 h -1.547 -1.547 l -1.20021,-1.86667 -1.20021,-1.86666 0.61388,1.9539 0.61388,1.95391 v 2.04609 2.0461 h 0.85333 0.85333 z"
     id="path24" />
  <path
     style="fill:#0366a5;fill-opacity:1;fill-rule:evenodd"
     d="m 656.40035,643.507 1.17102,-3.35917 -0.0324,-0.64083 -0.0324,-0.64083 -1.09979,1.8891 -1.09979,1.8891 -0.84513,-0.52232 -0.84514,-0.52232 -1.19977,2.63322 -1.19978,2.63322 h 2.00612 2.00612 z"
     id="path23" />
  <path
     style="fill:#0366a5;fill-opacity:1;fill-rule:evenodd"
     d="m 479.35068,651.07885 -1.41404,-0.87393 1.46342,-2.73444 1.46342,-2.73443 -0.67943,-0.67943 -0.67943,-0.67943 -2.84056,1.86121 -2.84056,1.86121 0.72227,-3.85005 0.72228,-3.85005 h -0.49466 -0.49467 l -2.34201,3.78943 -2.342,3.78944 0.38834,0.2422 0.38834,0.24219 4.03287,1.83345 4.03287,1.83345 0.69622,1.81432 0.69622,1.81432 0.46759,-1.40277 0.46758,-1.40276 z"
     id="path22" />
  <path
     style="fill:#0366a5;fill-opacity:1;fill-rule:evenodd"
     d="m 719.7047,654.98132 1.86667,-1.417 v -2.1518 -2.1518 l -1.60001,-1.32788 -1.6,-1.32788 v 2.26394 2.26394 h -1.06665 -1.06668 v 2.66667 2.66666 l 0.8,-0.0339 0.8,-0.0339 z"
     id="path21" />
  <path
     style="fill:#0366a5;fill-opacity:1;fill-rule:evenodd"
     d="m 747.56639,655.1622 1.15702,-1.83731 -1.26415,-1.26415 -1.26415,-1.26415 -1.64521,1.3654 -1.64521,1.3654 v 2.08094 2.08093 l 1.75234,-0.34487 1.75234,-0.34488 z"
     id="path20" />
  <path
     style="fill:#0366a5;fill-opacity:1;fill-rule:evenodd"
     d="m 541.86531,651.05075 1.74418,-5.25124 h 0.85654 0.85653 l 0.53436,-2.04339 0.53435,-2.04338 -1.15661,-1.15662 -1.15662,-1.15661 h -0.87365 -0.87366 l 0.63302,2.52209 0.63299,2.5221 -1.56882,0.60201 -1.56881,0.60201 -0.74396,5.40923 -0.74396,5.40922 h -0.96657 -0.96658 v 1.19728 1.19727 l 1.54154,-1.27936 1.54155,-1.27937 z"
     id="path19" />
  <path
     style="fill:#0366a5;fill-opacity:1;fill-rule:evenodd"
     d="m 713.03803,660.2609 v -1.4127 l -2.66667,-0.50976 -2.66666,-0.50977 v 0.5681 0.56809 l 1.74256,1.9255 1.74256,1.92551 0.92411,-0.57113 0.92411,-0.57114 z"
     id="path18" />
  <path
     style="fill:#0366a5;fill-opacity:1;fill-rule:evenodd"
     d="m 628.42933,659.13284 0.1913,-3.2 -0.53604,1.86594 -0.53603,1.86594 -2.58122,0.64784 -2.58123,0.64785 0.62661,1.01388 0.62662,1.01388 2.29935,-0.32766 2.29935,-0.32767 z"
     id="path17" />
  <path
     style="fill:#0366a5;fill-opacity:1;fill-rule:evenodd"
     d="m 793.70718,656.38151 0.13583,-6.84867 -0.47334,2.93333 -0.47335,2.93334 h -1.52915 -1.52914 v 3.55555 3.55556 l 0.73334,0.73333 0.73333,0.73333 1.13333,-0.37354 1.13334,-0.37355 z"
     id="path16" />
  <path
     style="fill:#0366a5;fill-opacity:1;fill-rule:evenodd"
     d="m 606.1221,667.82828 1.35074,-0.84285 -0.61369,-0.99296 -0.61368,-0.99296 h -2.54077 -2.54076 l -0.65924,1.06666 -0.65923,1.06667 0.65003,1.05177 0.65003,1.05177 1.81292,-0.28263 1.81292,-0.28263 z"
     id="path15" />
  <path
     style="fill:#0366a5;fill-opacity:1;fill-rule:evenodd"
     d="m 522.6893,669.16705 1.70605,-3.29913 -0.47805,-0.47804 -0.47804,-0.47805 -3.33681,2.80773 -3.3368,2.80774 0.59915,0.96944 0.59915,0.96943 h 1.50965 1.50966 z"
     id="path14" />
  <path
     style="fill:#0366a5;fill-opacity:1;fill-rule:evenodd"
     d="m 583.97137,692.19604 v -1.47757 l -2.73103,-2.99281 -2.73104,-2.99282 1.13104,2.32988 1.13103,2.32987 v 0.60346 0.60346 l -2.4,0.0163 -2.4,0.0163 1.54907,0.97995 1.54907,0.97995 0.73916,-0.45683 0.73916,-0.45682 0.63757,1.66148 0.63757,1.66148 1.0742,-0.66389 1.0742,-0.66389 z"
     id="path13" />
  <path
     style="fill:#0366a5;fill-opacity:1;fill-rule:evenodd"
     d="m 566.82996,725.31238 1.14141,-0.70544 v -1.00371 -1.00372 h -1.51111 -1.51111 l -0.40654,1.21963 -0.40654,1.21962 -2.44037,-1.30605 -2.44037,-1.30604 -0.63088,0.63088 -0.63088,0.63088 3.08656,3.22168 3.08656,3.22167 0.76092,-2.05698 0.76093,-2.05699 z"
     id="path12" />
  <path
     style="fill:#0366a5;fill-opacity:1;fill-rule:evenodd"
     d="m 593.91682,735.54967 -1.09665,-1.75016 -2.55773,-0.33986 -2.55773,-0.33987 2.4,1.73368 2.39999,1.73369 0.1089,3.93951 0.10889,3.93952 1.14549,-3.58318 1.1455,-3.58317 z"
     id="path11" />
  <path
     style="fill:#0366a5;fill-opacity:1;fill-rule:evenodd"
     d="m 592.93049,814.01006 1.90019,-1.38945 -1.69632,-1.40782 -1.69632,-1.40782 v -1.13719 -1.13719 l 2.17488,2.33446 2.17489,2.33447 h 3.514 3.51401 l 0.61792,-0.61793 0.61793,-0.61793 -3.10486,-4.60053 -3.10486,-4.60054 -1.6892,-0.6482 -1.68919,-0.64821 h -2.59446 -2.59447 l -3.15369,3.46667 -3.1537,3.46667 -0.0313,1.33333 -0.0313,1.33334 h 1.6 1.6 l 0.0339,-1.86667 0.0339,-1.86667 1.56608,2.07054 1.56609,2.07054 v 2.46279 2.4628 h 0.86279 0.8628 z"
     id="path10" />
  <path
     style="fill:#0366a5;fill-opacity:1;fill-rule:evenodd"
     d="m 574.5741,848.43989 -0.3306,-2.64037 -1.90974,-2.66667 -1.90975,-2.66666 -2.41601,-0.35698 -2.41601,-0.35697 -0.86159,0.8903 -0.86158,0.89031 0.59537,3.03665 0.59538,3.03664 3.32257,2.04124 3.32257,2.04124 1.6,-0.30418 1.6,-0.30417 z"
     id="path9" />
  <path
     style="fill:#0366a5;fill-opacity:1;fill-rule:evenodd"
     d="m 572.6251,866.57258 0.92039,-0.85384 -0.71668,-1.15961 -0.71667,-1.15961 h -1.49952 -1.49951 l -1.1042,2.06321 -1.1042,2.06321 v 0.67534 0.67534 l 2.4,-0.7251 2.4,-0.72511 z"
     id="path8" />
  <path
     style="fill:#0366a5;fill-opacity:1;fill-rule:evenodd"
     d="m 582.36195,872.98428 -0.66865,-1.08191 -4.29765,-2.1925 -4.29767,-2.1925 -0.56174,0.56174 -0.56174,0.56174 0.61494,1.6025 0.61494,1.60251 3.51683,1.01396 3.51684,1.01397 1.39628,0.0962 1.39629,0.0962 z"
     id="path7" />
  <path
     style="fill:#0366a5;fill-opacity:1;fill-rule:evenodd"
     d="m 578.12383,883.68577 -4.14716,-4.24709 -0.43337,0.43337 -0.43337,0.43337 0.6657,2.09743 0.66569,2.09742 3.4317,1.69201 3.4317,1.692 0.48314,0.0243 0.48314,0.0243 z"
     id="path6" />
  <path
     style="fill:#0366a5;fill-opacity:1;fill-rule:evenodd"
     d="m 573.74487,912.19953 0.72317,-4 h -1.14848 -1.14846 l -0.61491,1.60238 -0.61488,1.60239 0.70028,2.79014 0.70028,2.79015 0.33992,-0.39253 0.33992,-0.39253 z"
     id="path5" />
  <path
     style="fill:#0366a5;fill-opacity:1;fill-rule:evenodd"
     d="m 587.17137,980.16527 v -4.83426 l 1.60001,-3.82934 1.6,-3.82934 v -0.40307 -0.40306 h -1.6 -1.60001 v 2.60371 2.60372 l -1.03178,0.63767 -1.03178,0.63768 -1.35813,-2.17473 -1.35814,-2.17472 h -0.81008 -0.81008 v 1.98948 1.98949 l 2.09839,2.66768 2.09839,2.66767 -0.67616,0.67618 -0.67617,0.67617 h -3.76279 -3.76279 l 3.61447,2.66667 3.61446,2.66666 h 1.9261 1.9261 z"
     id="path4" />
  <path
     style="fill:#0366a5;fill-opacity:1;fill-rule:evenodd"
     d="m 601.52017,1116.3609 0.72829,-2.2947 -0.69682,-2.1955 -0.69682,-2.1956 -2.3084,0.3289 -2.30838,0.3288 -0.33815,2.3794 -0.33814,2.3793 -5.33094,-5.331 -5.33094,-5.3309 0.33575,-2.915 0.33575,-2.915 1.78584,0.2948 1.78584,0.2949 0.68616,-2.1619 0.68616,-2.1619 -3.49818,-6.3632 -3.49817,-6.3632 -2.49315,0.6258 -2.49315,0.6257 0.67508,-3.0622 0.67509,-3.0621 0.47233,-1.4938 0.47234,-1.4938 -0.71757,-15.1867 -0.71757,-15.1866 -3.31052,-1.6514 -3.31053,-1.6514 2.22223,-0.068 2.22222,-0.068 0.70185,-0.7018 0.70186,-0.7019 -1.18802,-1.4314 -1.18802,-1.4315 h -1.87212 -1.87211 l -1.42368,-1.7154 -1.42368,-1.7155 2.09307,-1.4482 2.09307,-1.4482 1.29605,-1.1102 1.29606,-1.1103 2.37121,3.2072 2.3712,3.2072 h 1.93274 1.93274 v -0.4742 -0.4742 l -3.57586,-7.7925 -3.57586,-7.7924 -2.02414,-1.7405 -2.02414,-1.7405 -2.4,-0.7314 -2.4,-0.7313 -0.002,-8.1948 -0.002,-8.19483 -3.25023,-12.26666 -3.25023,-12.26667 -0.55336,-1.86667 -0.55337,-1.86667 h 1.68092 1.68092 l -1.29334,-2.07097 -1.29334,-2.07097 1.33,-5.18937 1.32999,-5.18938 -0.63465,-1.65387 -0.63464,-1.65388 3.52229,-1.4032 3.52229,-1.40321 0.37438,-0.27918 0.37438,-0.27919 -2.77438,-3.6374 -2.77439,-3.63741 v -0.76227 -0.76227 l 1.06667,0.65924 1.06666,0.65923 v -0.89227 -0.89228 l -1.54461,-2.20524 -1.54461,-2.20525 -1.67045,-10.38085 -1.67044,-10.38085 -1.55395,-3.00502 -1.55396,-3.00501 3.96902,-0.74566 3.96901,-0.74566 -2.80601,-2.30057 -2.80601,-2.30057 -1.72732,-3.4137 -1.72733,-3.4137 v -6.45297 -6.45297 h 2.83199 2.83199 l -1.83481,-2.02744 -1.8348,-2.02743 1.1986,-0.74078 1.1986,-0.74078 -0.72595,-3.36512 -0.72596,-3.36512 -2.14539,-4.23629 -2.14539,-4.2363 -0.89353,-3.11557 -0.89353,-3.11557 0.57245,-0.92624 0.57245,-0.92624 2.30065,1.61144 2.30065,1.61144 h 1.36266 1.36266 v -4.56754 -4.56755 l -1.44375,-5.56579 -1.44374,-5.56579 h 0.91041 0.91041 v -1.24934 -1.24935 l -1.76532,-1.95065 -1.76532,-1.95066 h 2.43074 2.43074 l -0.72364,-6.13333 -0.72365,-6.13334 0.0239,-3.04311 0.0239,-3.04312 -2.09901,-4.11439 -2.099,-4.11439 v -2.29146 -2.29147 l 2.66666,0.66929 2.66667,0.6693 v -1.54614 -1.54613 l -2.3891,-0.34086 -2.38911,-0.34085 -0.39234,-2.13334 -0.39235,-2.13333 -1.08249,-1.33333 -1.08249,-1.33334 h -2.00273 -2.00272 v -0.6824 -0.68241 l 1.81753,-1.32902 1.81754,-1.32901 -3.41754,-3.89236 -3.41753,-3.89236 v -1.02955 -1.02955 h 1.6 1.6 v -0.93606 -0.93606 l -1.55328,-1.28911 -1.55327,-1.2891 -1.17599,0.7268 -1.17598,0.7268 0.32926,-5.08492 0.32926,-5.08493 1.33333,-0.43893 1.33333,-0.43894 v 2.13498 2.13498 l 0.64746,1.68724 0.64745,1.68725 1.21922,-0.0313 1.21921,-0.0313 3.51321,-3.19528 3.51321,-3.19529 -0.64283,-1.04011 -0.64283,-1.04012 h 1.16715 1.16715 l -1.09789,-2.05142 -1.09789,-2.05143 -1.14643,-5.34559 -1.14642,-5.3456 -1.50414,-1.24832 -1.50413,-1.24832 1.00672,-1.88108 1.00673,-1.88108 -0.67359,-0.67358 -0.67358,-0.67358 h -3.02222 -3.02222 v -3.2 -3.2 h 0.39922 0.39923 l 4.56716,1.61139 4.56716,1.61139 0.49505,-0.49505 0.49505,-0.49505 -0.64387,-2.56538 -0.64387,-2.56537 -4.8546,-6.25177 -4.85461,-6.25178 2.29372,-1.73015 2.29371,-1.73015 -0.76111,-5.53392 -0.76111,-5.53391 1.30171,-1.56846 1.30171,-1.56846 h 0.77305 0.77306 l 1.15748,2.4 1.15747,2.4 0.0722,-3.37943 0.0722,-3.37942 0.7146,-1.86223 0.7146,-1.86222 -1.24793,0.77127 -1.24794,0.77127 v -1.66296 -1.66295 h -1.06667 -1.06666 v 0.84029 0.8403 l -2.93334,3.51431 -2.93333,3.51431 0.35465,-5.19942 0.35466,-5.19942 -0.93303,-3.60068 -0.93303,-3.60068 -1.78283,-1.12457 -1.78282,-1.12458 -3.32025,3.17007 -3.32024,3.17007 0.73041,-2.93333 0.73042,-2.93334 h -1.67852 -1.67852 l -3.77045,3.3105 -3.77045,3.3105 v -1.04656 -1.04655 l 1.66857,-1.38479 1.66858,-1.3848 -0.68861,-2.74363 -0.68861,-2.74363 -0.44009,-0.44009 -0.44009,-0.44009 -2.05801,1.86247 -2.058,1.86247 0.59103,3.6421 0.59103,3.64211 h -0.6424 -0.6424 l -0.83846,-3.23572 -0.83846,-3.23572 -4.52806,3.32997 -4.52807,3.32998 0.73659,-1.96092 0.73659,-1.96093 1.45749,-1.09481 1.45749,-1.0948 -0.74034,-1.9293 -0.74034,-1.92929 -3.77514,0.70822 -3.77515,0.70822 2.94827,-3.86537 2.94827,-3.86538 -1.37182,-1.81874 -1.37181,-1.81875 -1.58956,-1.33333 -1.58956,-1.33334 h -3.48998 -3.48997 l -5.41231,2.13334 -5.41231,2.13333 h -2.00803 -2.00804 l 1.69482,-4.3146 1.69483,-4.31461 -1.87596,-1.81873 -1.87597,-1.81873 -1.77133,2.66457 -1.77134,2.66458 -2.61165,2.45389 -2.61165,2.45389 -3.22174,-0.31846 -3.22174,-0.31847 -1.3081,-2.66666 -1.3081,-2.66667 -0.7214,-2.13333 -0.72141,-2.13334 -3.57136,7.73334 -3.57135,7.73333 h -1.09908 -1.09909 v -0.54781 -0.5478 l 1.30663,-2.09224 1.30662,-2.09224 -1.24348,-1.24347 -1.24347,-1.24348 4.20352,-4.98513 4.20352,-4.98512 v -2.33136 -2.33135 h -1.8217 -1.82169 l -4.20218,4 -4.20217,4 0.65706,-1.86667 0.65706,-1.86666 h -2.81128 -2.81127 l -6.87877,3.78104 -6.87877,3.78105 -1.17071,-0.39023 -1.17071,-0.39024 2.89423,-2.5165 2.89423,-2.51651 v -1.33576 -1.33576 l -2.3959,-0.76043 -2.39591,-0.76043 -1.24923,-1.70843 -1.24923,-1.70842 1.20487,-1.45179 1.20488,-1.45178 -2.03028,-1.48457 -2.03027,-1.48458 -6.4628,0.038 -6.46279,0.038 -6.4,1.54535 -6.4,1.54534 -0.74451,0.0167 -0.74452,0.0167 1.02487,-2.93333 1.02486,-2.93333 3.3524,-0.23676 3.35239,-0.23676 2.47927,-2.32915 2.47927,-2.32915 -0.65949,-2.76743 -0.65949,-2.76742 -0.44979,-0.80158 -0.44978,-0.80158 -2.56922,1.86825 -2.56922,1.86824 -0.0335,1.15242 -0.0335,1.15241 -5.20201,5.65837 -5.20201,5.65836 -1.19799,-0.74039 -1.19799,-0.7404 v -1.63914 -1.63914 l 1.8221,-3.08458 1.82211,-3.08458 -2.08877,-1.57941 -2.08877,-1.57941 -1.27039,-0.0339 -1.27038,-0.0339 -0.73294,1.18592 -0.73294,1.18593 1.46999,0.93107 1.46999,0.93108 -3.5823,0.0163 -3.5823,0.0163 0.69489,-2.76869 0.6949,-2.7687 -1.0629,-1.28072 -1.06291,-1.28073 4.61024,-2.51845 4.61024,-2.51845 1.8602,0.71383 1.8602,0.71382 -1.19995,1.44586 -1.19995,1.44585 1.50338,1.2477 1.50338,1.24769 4.3217,-1.3488 4.3217,-1.34879 0.64228,-2.55905 0.64228,-2.55905 2.36428,2.22113 2.36429,2.22113 8.31634,3.35786 8.31633,3.35787 1.49792,-1.97732 1.49791,-1.97732 0.0339,1.86667 0.0339,1.86666 h 1.06666 1.06667 v -0.99047 -0.99048 l 1.8433,-1.8433 1.8433,-1.8433 0.72835,3.56124 0.72835,3.56125 -3.25138,3.03724 -3.25138,3.03725 0.61063,0.61063 0.61063,0.61063 5.24922,-1.74351 5.24923,-1.74352 2.12759,-2.36516 2.1276,-2.36516 0.66807,-1.89083 0.66807,-1.89082 2.17018,1.3553 2.17017,1.35529 -0.60916,1.6022 -0.60916,1.60219 1.34319,-1.33333 1.3432,-1.33334 h 3.87543 3.87543 l 6.14483,-1.23405 6.14483,-1.23406 0.69974,0.96739 0.69974,0.96739 1.06666,0.0396 1.06667,0.0396 3.52332,2.09369 3.52331,2.0937 0.61758,2.97114 0.61758,2.97115 1.85893,-1.68231 1.85894,-1.68232 0.9335,0.21385 0.9335,0.21384 1.6,-0.61258 1.6,-0.61257 5.73492,-0.58916 5.73492,-0.58915 2.49963,-1.63783 2.49963,-1.63782 -0.61533,1.60354 -0.61534,1.60355 0.6005,1.5649 0.60051,1.56489 3.1649,-3.16489 3.16489,-3.1649 h 3.81539 3.81538 v 2.48193 2.48193 l 3.46667,-0.50445 3.46667,-0.50445 3.30068,-2.51081 3.30068,-2.51082 h 2.23637 2.23636 l 0.57113,0.92411 0.57113,0.92411 -2.10818,1.90788 -2.10818,1.90788 v 1.43468 1.43468 h 2.40705 2.40704 l 3.61149,-1.03576 3.61148,-1.03576 0.8759,0.54133 0.8759,0.54133 -2.18332,2.18332 -2.18331,2.18332 0.63324,0.63324 0.63324,0.63324 1.60671,-2.05546 1.60671,-2.05547 1.58227,-3.59693 1.58227,-3.59693 -0.02,-5.46974 -0.02,-5.46973 -2.64667,-10.07701 -2.64667,-10.07701 v -3.89716 -3.89715 l 1.17101,-3.35917 1.17101,-3.35917 h 1.62626 1.62627 l -1.21157,-1.45985 -1.21157,-1.45985 3.1413,-1.52138 3.14131,-1.52137 -1.94042,-4.33407 -1.94042,-4.33406 -0.72514,-2.28471 -0.72514,-2.28471 h 3.59188 3.59188 l 1.15961,1.1596 1.15961,1.15961 0.68766,-1.11265 0.68766,-1.11266 -1.63394,-3.91055 -1.63393,-3.91055 v -1.53269 -1.53268 l 0.96719,0.59775 0.96719,0.59776 -0.60531,-2.31472 -0.60531,-2.31472 1.70784,0.65536 1.70785,0.65536 1.23252,-5.93701 1.23252,-5.93701 -0.45084,-3.07177 -0.45084,-3.07177 h 1.9486 1.94859 v -0.60346 -0.60345 l -1.2413,-2.32988 -1.2413,-2.32988 1.76201,1.45347 1.76201,1.45346 0.6528,-1.70115 0.65279,-1.70116 -0.3735,-9.60508 -0.37351,-9.60509 1.6,0.25278 1.6,0.25277 -0.31029,-1.46419 -0.31028,-1.46419 1.5458,0.59318 1.54581,0.59318 0.69716,-2.86232 0.69716,-2.86233 4.33366,-7.21759 4.33366,-7.21759 0.56343,-4.99872 0.56343,-4.99872 0.91423,2.4714 0.91423,2.4714 1.6579,-1.37594 1.65791,-1.37594 -0.62931,-2.74581 -0.62931,-2.74582 1.89407,2.35035 1.89407,2.35035 4.53333,-0.62413 4.53334,-0.62413 v -0.94348 -0.94348 l -3.68765,-1.75851 -3.68765,-1.75852 0.5506,-0.89089 0.5506,-0.89089 h 2.60372 2.60371 v -2.22506 -2.22505 l -4.53333,0.35838 -4.53334,0.35839 v -2.11491 -2.11491 l 7.41669,-2.98254 7.41668,-2.98253 1.91665,-1.73454 1.91665,-1.73454 v -1.89614 -1.89613 l 2.21197,-0.70205 2.21196,-0.70205 3.31778,1.37427 3.31778,1.37427 0.42581,-1.27743 0.42581,-1.27744 h 0.97778 0.97778 v 1.39613 1.39613 l 1.4146,1.93459 1.41461,1.9346 2.31873,-0.73594 2.31872,-0.73593 v -2.06146 -2.06145 h -0.81008 -0.81009 l -1.40199,-2.24495 -1.402,-2.24496 1.22968,0.75999 1.22968,0.75998 4.73826,-1.32663 4.73826,-1.32663 1.89618,1.71601 1.89617,1.71602 1.51677,-2.10442 1.51678,-2.10441 h 0.757 0.757 l 0.34086,2.29106 0.34085,2.29107 1.93841,1.1756 1.9384,1.1756 2.33432,-2.89068 2.33433,-2.89068 1.59394,1.00768 1.59394,1.00768 2.91301,0.0163 2.91301,0.0163 0.50443,2.4 0.50444,2.4 1.11589,5.6525 1.11588,5.65251 v 1.71281 1.71282 l -1.95065,-1.76532 -1.95066,-1.76532 h -1.36805 -1.36806 l 0.70038,3.73334 0.70038,3.73333 h -1.77894 -1.77895 l 1.2245,-1.47543 1.2245,-1.47543 -1.71446,-0.65791 -1.71447,-0.6579 h -1.51276 -1.51276 v 2.45334 2.45333 l 1.32442,1.32442 1.32442,1.32441 -1.50205,0.92832 -1.50204,0.92831 -2.55848,-0.97273 -2.55848,-0.97273 h -1.00627 -1.00626 l 1.15351,1.86667 1.15352,1.86666 -2.05434,4.5649 -2.05434,4.5649 -1.35408,-1.63156 -1.35407,-1.63157 h -0.91147 -0.91147 l -1.65293,2.52269 -1.65293,2.52269 1.11489,2.9324 1.1149,2.93239 -1.68001,-0.64467 -1.68,-0.64468 -2.5392,2.92292 -2.53919,2.92293 -2.18622,-1.33334 -2.18621,-1.33333 h -1.98249 -1.98248 l -1.93064,2.13333 -1.93064,2.13334 h -1.31028 -1.31027 l -0.55788,2.13333 -0.55788,2.13333 h 0.71022 0.71023 l 1.33228,-2.13333 1.33229,-2.13333 h 0.97579 0.97579 l 3.5485,2.92212 3.54851,2.92212 -1.42516,-1.80873 -1.42516,-1.80873 0.72501,-1.17309 0.72501,-1.1731 2.3854,2.4597 2.38539,2.45971 -2.02688,3.44721 -2.02689,3.44722 0.67126,1.08612 0.67126,1.08612 h -1.73483 -1.73484 l 0.70136,2.20977 0.70135,2.20977 -1.86073,2.0561 -1.86074,2.05609 -4.75269,-2.65633 -4.75269,-2.65633 -0.94938,0.58675 -0.94938,0.58675 0.007,1.27038 0.007,1.27038 3.72604,2.5375 3.72605,2.53749 v 1.46251 1.4625 h -0.93657 -0.93656 l -1.67416,-2.4 -1.67415,-2.4 -0.056,1.6401 -0.0559,1.6401 -5.33333,5.25313 -5.33333,5.25314 v 1.20811 1.20811 l 1.95958,1.77341 1.95959,1.7734 3.22024,-0.64405 3.22024,-0.64405 0.63252,1.64831 0.63251,1.64831 -1.65333,-0.63444 -1.65333,-0.63444 -0.94268,1.48876 -0.94268,1.48877 -0.0163,2.6245 -0.0163,2.62449 3.38398,6.52679 3.38397,6.52679 -0.6981,1.81923 -0.6981,1.81922 -2.68588,-1.75985 -2.68587,-1.75986 0.0405,1.45601 0.0405,1.45601 4.30075,2.97629 4.30076,2.97629 -0.45882,1.29038 -0.45882,1.29038 -2.28242,-0.25409 -2.28241,-0.25409 v 0.84075 0.84076 l 1.17404,1.17404 1.17404,1.17404 -2.18035,0.69202 -2.18034,0.69201 -1.63558,5.6262 -1.63558,5.6262 -1.89145,1.66158 -1.89145,1.66158 -2.39402,0.72948 -2.39403,0.72949 3.23289,4.02289 3.23288,4.02289 0.61728,3.80387 0.61728,3.80387 -2.4343,1.3028 -2.4343,1.3028 -5.62373,-3.0421 -5.62373,-3.0421 -0.64145,0.64145 -0.64146,0.64146 2.26133,3.83266 2.26132,3.83266 -0.78127,1.26412 -0.78127,1.26412 4.16329,-0.59058 4.16329,-0.59057 2.13333,-0.72552 2.13334,-0.72551 -1.86667,1.538 -1.86667,1.538 v 1.42908 1.42907 l 1.19665,-1.19664 1.19664,-1.19665 1.63916,0.62901 1.63916,0.629 -0.6758,-3.37902 -0.67581,-3.37903 h 2.10667 2.10667 v 3.2 3.2 h -1.03319 -1.03319 l 0.61397,1.6 0.61398,1.6 h 1.49574 1.49574 l 3.36822,-5.47405 3.36822,-5.47406 1.38013,1.88744 1.38013,1.88744 3.17741,-1.31613 3.17741,-1.31612 1.22397,0.75646 1.22397,0.75645 -0.47885,1.83115 -0.47886,1.83114 4.72831,1.26463 4.72832,1.26463 0.99095,-0.61244 0.99095,-0.61244 v -0.87431 -0.87431 l -3.09464,-1.28184 -3.09464,-1.28184 -2.42463,-2.5809 -2.42463,-2.5809 h 1.85486 1.85486 l 5.16722,-2.22288 5.16722,-2.22287 2.05413,1.09933 2.05413,1.09934 -0.50404,3.43425 -0.50404,3.43425 3.24509,-2.31071 3.2451,-2.31071 h 0.53099 0.53099 l 1.23164,3.46667 1.23163,3.46666 3.24089,-3.99757 3.24089,-3.99757 2.709,2.13091 2.70901,2.1309 h 2.59294 2.59294 l 2.32988,-1.22267 2.32987,-1.22266 4.8,-3.95467 4.8,-3.95467 2.32988,-1.22266 2.32987,-1.22267 h 2.0477 2.0477 l 2.91104,2.69786 2.91104,2.69786 2.31138,-2.88023 2.31139,-2.88023 0.75558,-1.14205 0.75559,-1.14204 1.26096,1.26096 1.26096,1.26096 0.11679,3.26102 0.11679,3.26102 0.46458,0.002 0.46459,0.002 2.49169,-2.34082 2.49168,-2.34082 1.57705,-0.23147 1.57706,-0.23146 v 1.82476 1.82477 l 4,-0.44555 4,-0.44555 1.33333,-1.07087 1.33334,-1.07087 v 1.73061 1.7306 h 3.48573 3.48572 l 4.00342,-2.72039 4.00341,-2.72039 1.57753,1.57754 1.57753,1.57753 v 0.91586 0.91587 l 2.38814,0.17989 2.38814,0.1799 4.0986,1.84821 4.0986,1.84821 3.11002,-1.1739 3.11002,-1.1739 -0.64573,2.57278 -0.64573,2.57279 h 0.96897 0.96897 l 1.28,-1.28 1.28,-1.28 v 0.81679 0.8168 l -1.09105,2.03864 -1.09105,2.03864 1.01319,1.89123 1.01318,1.89124 0.73239,2.13333 0.73239,2.13333 1.26558,-4.26666 1.26559,-4.26667 0.64669,2.4 0.6467,2.4 h 1.28759 1.2876 l -0.57905,-2.93333 -0.57904,-2.93334 -0.34202,-2.01853 -0.34203,-2.01853 1.08123,-0.38632 1.08122,-0.38632 3.48725,5.83028 3.48724,5.83028 1.17658,0.72717 1.17658,0.72717 2.25495,0.11407 2.25495,0.11407 0.34615,4.25314 0.34615,4.25314 1.11779,1.34686 1.1178,1.34686 -1.31639,1.58615 -1.31639,1.58615 0.67277,2.68051 0.67277,2.68052 h 1.02602 1.02602 l 0.66908,-2.66581 0.66907,-2.66581 1.90071,3.72812 1.9007,3.72812 0.61895,4.00436 0.61894,4.00436 0.59912,10.66666 0.59911,10.66667 0.41868,1.21087 0.41867,1.21086 -3.26414,3.05581 -3.26415,3.0558 0.70415,-2.95676 0.70416,-2.95676 -1.52109,-0.58369 -1.52109,-0.5837 -0.53858,-2.05955 -0.53859,-2.05955 h -1.58574 -1.58574 l -0.63992,1.66761 -0.63992,1.66761 -1.0742,-0.66389 -1.0742,-0.66389 -0.0324,-3.93705 -0.0324,-3.93705 -1.09416,1.87904 -1.09416,1.87905 -3.14482,-0.23963 -3.14482,-0.23963 0.27142,-2.56198 0.27141,-2.56198 -1.92914,-1.21077 -1.92914,-1.21077 -1.53753,2.07054 -1.53752,2.07054 -0.007,-1.53721 -0.007,-1.5372 -3.43486,-1.95572 -3.43487,-1.95572 1.84161,-1.03062 1.84161,-1.03062 v -2.19301 -2.19302 l -2.78406,-3.30866 -2.78405,-3.30867 -1.48261,-0.2176 -1.48261,-0.2176 v 0.84788 0.84788 l 2.28276,0.59695 2.28276,0.59696 -0.61958,3.81802 -0.61958,3.81802 0.92978,-0.57464 0.92978,-0.57463 0.67464,1.0916 0.67465,1.0916 -1.5625,0.59958 -1.56249,0.59959 -0.58446,2.23496 -0.58445,2.23496 -1.51879,-1.26048 -1.5188,-1.26049 -1.73519,0.66586 -1.7352,0.66586 -0.12283,-1.44745 -0.12283,-1.44746 0.17056,-2.13333 0.17057,-2.13334 -1.09005,1.6 -1.09005,1.6 0.61198,1.96472 0.61198,1.96471 -1.96966,-0.38296 -1.96967,-0.38296 -0.11112,-6.32991 -0.11111,-6.3299 -1.18288,-0.39429 -1.18288,-0.39429 -0.57267,2.74244 -0.57267,2.74244 -0.56461,2.71029 -0.5646,2.7103 -1.03828,-0.6417 -1.03828,-0.64169 1.06955,-1.99847 1.06955,-1.99848 v -0.60346 -0.60345 h -1.28255 -1.28255 l -3.44715,-3.3411 -3.44714,-3.34111 -1.6703,0.64096 -1.67031,0.64096 v 3.02014 3.02015 l 1.28,1.28 1.28,1.28 -1.35619,1.33333 -1.35619,1.33333 0.34286,-1.6 0.34285,-1.6 h -2.59636 -2.59637 l -2.80656,4.7988 -2.80656,4.79879 -1.78561,0.34388 -1.7856,0.34388 0.67508,-3.54268 0.67508,-3.54267 -0.95321,0.87419 -0.95322,0.87419 -1.09864,4.38092 -1.09863,4.38091 -1.30137,0.43378 -1.30136,0.43379 v -2.4 -2.4 l -0.71344,0.71344 -0.71343,0.71344 -1.68657,-1.51894 -1.68656,-1.51893 -3.69928,-0.35006 -3.69928,-0.35006 -2.18482,-3.25457 -2.18482,-3.25458 -1.9123,4.00271 -1.91231,4.00272 -2.06071,0.65404 -2.06072,0.65405 -1.20868,-0.747 -1.20867,-0.74701 0.6955,-6.78851 0.69551,-6.78852 h -0.89578 -0.89578 l -2.45067,3.31471 -2.45067,3.31472 1.71343,4.36198 1.71344,4.36198 -1.15097,-1.15097 -1.15097,-1.15097 -3.1644,1.19443 -3.16441,1.19443 0.61349,2.44433 0.61349,2.44432 -4.36184,-2.75351 -4.36183,-2.7535 -1.79964,0.17853 -1.79964,0.17852 -2.37968,-0.12283 -2.37967,-0.12283 -0.66929,-2.66667 -0.66929,-2.66667 h -0.89803 -0.89803 l -0.9956,1.77903 -0.99559,1.77903 -0.73948,-3.36679 -0.73947,-3.3668 -0.9846,-0.60852 -0.9846,-0.60852 v 2.19629 2.19628 h -1.00372 -1.00371 l -0.70418,-1.13938 -0.70418,-1.13939 -1.4921,0.57258 -1.49211,0.57257 -0.0189,-3.43319 -0.0189,-3.43319 -4.31604,7.46667 -4.31603,7.46667 -1.68891,1.29916 -1.6889,1.29917 -0.93245,-0.57629 -0.93245,-0.57629 1.93986,-1.78954 1.93987,-1.78955 -1.58332,1.06667 -1.58331,1.06667 0.83537,-2.13334 0.83538,-2.13333 0.60807,-1.6 0.60808,-1.6 -2.1332,2.56421 -2.1332,2.56422 -6.31054,0.4996 -6.31054,0.4996 -1.33333,1.0668 -1.33333,1.06679 v 7.2731 7.27311 l 1.06666,0.65924 1.06667,0.65924 v -1.66296 -1.66295 h 1.67085 1.67085 l -0.33752,2.93334 -0.33751,2.93333 -2.13334,-0.1512 -2.13333,-0.15119 -3.51466,-1.43411 -3.51466,-1.4341 -0.91064,1.47345 -0.91065,1.47346 -0.46444,-2.02149 -0.46445,-2.02149 -0.97692,3.33217 -0.97691,3.33217 -2.4,-0.8978 -2.4,-0.89779 0.0175,-1.36771 0.0176,-1.3677 2.47441,-4.26667 2.47442,-4.26667 1.24137,0.26667 1.24137,0.26666 v -0.9442 -0.9442 l -1.46064,-3.47386 -1.46065,-3.47385 -0.54554,1.48472 -0.54555,1.48473 -1.16741,-2.93334 -1.16741,-2.93333 h -1.09306 -1.09307 v 3.45546 3.45546 l -1.86667,4.54054 -1.86666,4.54055 -1.35974,0.004 -1.35973,0.004 -0.97447,2.56305 -0.97447,2.56306 -1.07889,0.66678 -1.07888,0.66679 2.16465,3.6688 2.16465,3.66881 -0.36617,1.90136 -0.36617,1.90135 -0.9328,-0.35777 -0.9328,-0.35777 -0.90293,1.42444 -0.90292,1.42444 -0.0163,-1.33334 -0.0163,-1.33333 v -0.53333 -0.53334 l -2.13333,-2.13333 -2.13333,-2.13333 h -0.55793 -0.55792 l 1.78558,2.72514 1.78558,2.72514 -0.15262,8.02985 -0.15263,8.02985 -0.64742,1.04755 -0.64743,1.04756 0.64642,3.44572 0.64643,3.44573 6.36123,1.41124 6.36123,1.41123 1.7766,-0.68174 1.7766,-0.68175 -1.87456,-2.07137 -1.87456,-2.07136 0.62922,-1.63973 0.62922,-1.63973 h 1.02396 1.02395 l 1.67619,1.67619 1.67619,1.67619 v 1.55927 1.55927 l -2.79152,5.50881 -2.79152,5.5088 1.33684,2.14063 1.33685,2.14063 -1.25651,0.41883 -1.25651,0.41884 1.24179,1.49627 1.2418,1.49627 h 1.46939 1.46939 v 0.40307 0.40307 l -1.62451,3.88801 -1.62452,3.88801 -1.84215,-0.99929 -1.84215,-0.99928 -3.07386,-3.23017 -3.07385,-3.23016 0.59105,-2.26021 0.59106,-2.26021 -1.5889,-0.60972 -1.5889,-0.60972 -1.2083,1.2083 -1.2083,1.2083 h -2.66667 -2.66667 l 1.28,1.28 1.28,1.28 v 1.21545 1.21545 l -2.66666,1.21502 -2.66667,1.21501 v 1.62287 1.62287 h 2.82348 2.82347 l 4.64319,3.80475 4.64319,3.80474 v 1.44675 1.44675 l 2.68632,3.1925 2.68631,3.19251 -2.15298,5.46215 -2.15298,5.46216 v 3.12837 3.12836 l -3.88218,-2.63452 -3.88219,-2.63452 h -1.12168 -1.12169 l 1.97718,-1.44575 1.97718,-1.44575 -0.64223,-1.67364 -0.64224,-1.67364 -3.89495,-1.84828 -3.89496,-1.84827 -1.68788,-3.53954 -1.68789,-3.53953 -2.48157,0.5072 -2.48156,0.5072 -2.71111,0.56481 -2.7111,0.56481 3.37316,2.83832 3.37315,2.83832 -0.70553,7.78577 -0.70552,7.78576 1.1357,2.12207 1.1357,2.12208 6.10777,1.70701 6.10777,1.70702 2.35725,2.59179 2.35724,2.59179 1.28815,-2.40693 1.28815,-2.40693 0.44349,1.33049 0.4435,1.33049 h 1.30724 1.30724 l 2.07054,1.65884 2.07054,1.65885 -2.54652,-1.24145 -2.54651,-1.24145 0.51503,2.69419 0.51503,2.69418 -2.76852,-0.17824 -2.76851,-0.17825 0.0617,3.88788 0.0617,3.88787 -1.25487,-0.48153 -1.25487,-0.48154 -0.57366,2.19366 -0.57365,2.19366 h -2.06932 -2.06931 l -3.34268,1.66754 -3.34267,1.66755 -0.61749,0.99912 -0.61749,0.99912 h 1.94626 1.94626 l 3.37323,1.86667 3.37324,1.86667 6.9998,7.8546 6.99981,7.8546 -2.55793,2.01207 -2.55793,2.01206 h -4.89842 -4.89842 v 1.46939 1.4694 l 1.64854,1.36817 1.64855,1.36816 -0.60028,1.56431 -0.60028,1.5643 1.09822,1.32328 1.09822,1.32328 -1.61315,1.3388 -1.61315,1.33879 v 2.0739 2.0739 l 2.66666,3.49618 2.66667,3.49618 v 0.59945 0.59946 l -2.01295,-0.5264 -2.01295,-0.5264 -0.75539,1.22225 -0.75539,1.22224 4.43998,7.67068 4.43997,7.67068 -3.31043,-3.17007 -3.31044,-3.17007 -1.82787,1.15107 -1.82786,1.15107 -0.2975,1.5063 -0.2975,1.5063 1.51398,2.07049 1.51398,2.07049 2.94579,-1.34218 2.94578,-1.34219 1.07146,1.07146 1.07147,1.07146 -3.25715,1.86934 -3.25714,1.86935 3.53079,5.51951 3.53079,5.51951 -2.04071,-0.53366 -2.04071,-0.53365 v -2.00893 -2.00893 h -0.60346 -0.60345 l -2.15164,1.15152 -2.15163,1.15152 0.75073,5.51515 0.75074,5.51515 -2.30272,-2.06856 -2.30272,-2.06856 0.65196,-2.96837 0.65197,-2.96838 -2.69641,-2.6964 -2.6964,-2.6964 h -1.77909 -1.77909 l 1.32788,1.6 1.32788,1.6 h -0.82926 -0.82926 l 1.85818,2.05327 1.85818,2.05326 -2.75953,4.06101 -2.75953,4.06101 v 5.01483 5.01483 l 4.67228,12.48261 4.67228,12.48261 1.47105,-3.07838 1.47104,-3.07838 2.20546,-0.31667 2.20546,-0.31667 1.75687,4.05 1.75687,4.05001 -0.23899,8.44497 -0.23898,8.44497 -1.41616,0.47152 -1.41617,0.47153 0.69977,-4.66636 0.69976,-4.66637 -2.24319,-2.85176 -2.2432,-2.85176 -5.77435,-2.7317 -5.77435,-2.73171 h -2.08527 -2.08527 l -0.64745,1.68724 -0.64745,1.68724 0.0132,1.77943 0.0132,1.77942 3.80016,2.46227 3.80016,2.46227 2.02988,4.47106 2.02988,4.47107 0.0234,3.04 0.0234,3.04 -3.7315,3.7315 -3.73149,3.73149 0.55009,0.89008 0.5501,0.89007 6.11473,1.24938 6.11473,1.24938 1.86667,1.65437 1.86667,1.65437 v 0.92167 0.92167 l -2.68052,-0.67277 -2.68052,-0.67276 -1.52554,1.26608 -1.52555,1.26609 -5.92882,-4.4763 -5.92881,-4.4763 -1.59846,1.3266 -1.59845,1.3266 v 2.23585 2.23585 l 5.6,5.7581 5.6,5.75811 -2.55673,-1.31264 -2.55673,-1.31264 0.61296,4.56998 0.61297,4.57 3.2771,4.6181 3.2771,4.6181 3.39394,4.7838 3.39394,4.7838 -0.7384,0.7384 -0.7384,0.7384 -2.98058,-2.8555 -2.98057,-2.8556 h -1.15131 -1.15132 l 0.16455,4.8886 0.16456,4.8885 -0.82154,0.5077 -0.82154,0.5078 v 2.1079 2.1079 l -2.14916,-1.1502 -2.14916,-1.1502 -0.64894,1.6911 -0.64894,1.6911 0.70954,5.3488 0.70954,5.3488 2.7559,7.6727 2.75589,7.6728 3.59933,7.1734 3.59933,7.1733 -0.002,0.2933 -0.002,0.2933 -3.11276,0.1093 -3.11275,0.1093 -1.76145,-4.6123 -1.76145,-4.6123 -3.21368,-2.7041 -3.21368,-2.7041 -1.04907,0.6484 -1.04907,0.6483 0.57258,1.4921 0.57257,1.4921 h -1.6 -1.6 l -0.6348,1.6543 -0.6348,1.6542 2.45735,2.6158 2.45735,2.6157 1.14426,-0.2373 1.14427,-0.2372 2.66666,1.7377 2.66667,1.7377 4.17033,1.9629 4.17033,1.9629 1.15755,1.8666 1.15754,1.8667 -1.20952,1.8667 -1.20952,1.8666 -4.33018,-0.1965 -4.33019,-0.1965 -0.71074,4.7396 -0.71073,4.7395 1.31984,1.5903 1.31984,1.5903 h 0.93606 0.93605 l 0.0791,-2.4 0.0791,-2.3999 1.89934,4.2665 1.89933,4.2667 -0.93801,0.6125 -0.938,0.6125 2.66075,3.9208 2.66075,3.9209 h -0.94728 -0.94728 l -1.81034,0.6947 -1.81033,0.6947 z"
     id="path3" />
  <path
     style="fill:#0366a5;fill-opacity:1;fill-rule:evenodd"
     d="m 605.74566,1146.6082 -1.74157,-2.658 0.96117,-5.0753 0.96116,-5.0754 1.34302,2.4306 1.34302,2.4305 0.62804,5.3028 0.62803,5.3028 h -1.19065 -1.19065 z"
     id="path1" />
</svg>
